<svg style="overflow: hidden; position: relative;" xmlns="http://www.w3.org/2000/svg" xmlns:xlink="http://www.w3.org/1999/xlink" width="600" version="1.1" height="600"><path transform="matrix(1,0,0,1,0,0)" fill="none" stroke="#000" d="M300,300L300,250" stroke-width="1"></path><path transform="matrix(1,0,0,1,0,0)" fill="none" stroke="#000" d="M300,300L300,350" stroke-width="1"></path><path transform="matrix(1,0,0,1,0,0)" fill="none" stroke="#000" d="M300,250L275,206.69872981077805" stroke-width="1"></path><path transform="matrix(1,0,0,1,0,0)" fill="none" stroke="#000" d="M275,206.69872981077805L231.69872981077805,181.69872981077802" stroke-width="1"></path><path transform="matrix(1,0,0,1,0,0)" fill="none" stroke="#000" d="M231.69872981077805,181.69872981077802L181.69872981077802,181.698729810778" stroke-width="1"></path><path transform="matrix(1,0,0,1,0,0)" fill="none" stroke="#000" d="M181.69872981077802,181.698729810778L138.39745962155604,206.698729810778" stroke-width="1"></path><path transform="matrix(1,0,0,1,0,0)" fill="none" stroke="#000" d="M138.39745962155604,206.698729810778L113.397459621556,249.99999999999994" stroke-width="1"></path><path transform="matrix(1,0,0,1,0,0)" fill="none" stroke="#000" d="M138.39745962155604,206.698729810778L95.09618943233406,231.698729810778" stroke-width="1"></path><path transform="matrix(1,0,0,1,0,0)" fill="none" stroke="#000" d="M138.39745962155604,206.698729810778L88.397459621556,206.69872981077796" stroke-width="1"></path><path transform="matrix(1,0,0,1,0,0)" fill="none" stroke="#000" d="M181.69872981077802,181.698729810778L131.698729810778,181.69872981077796" stroke-width="1"></path><path transform="matrix(1,0,0,1,0,0)" fill="none" stroke="#000" d="M131.698729810778,181.69872981077796L88.39745962155601,206.69872981077793" stroke-width="1"></path><path transform="matrix(1,0,0,1,0,0)" fill="none" stroke="#000" d="M131.698729810778,181.69872981077796L81.69872981077796,181.69872981077793" stroke-width="1"></path><path transform="matrix(1,0,0,1,0,0)" fill="none" stroke="#000" d="M131.698729810778,181.69872981077796L88.39745962155604,156.69872981077793" stroke-width="1"></path><path transform="matrix(1,0,0,1,0,0)" fill="none" stroke="#000" d="M181.69872981077802,181.698729810778L138.39745962155607,156.69872981077796" stroke-width="1"></path><path transform="matrix(1,0,0,1,0,0)" fill="none" stroke="#000" d="M138.39745962155607,156.69872981077796L88.39745962155604,156.69872981077793" stroke-width="1"></path><path transform="matrix(1,0,0,1,0,0)" fill="none" stroke="#000" d="M138.39745962155607,156.69872981077796L95.09618943233411,131.69872981077793" stroke-width="1"></path><path transform="matrix(1,0,0,1,0,0)" fill="none" stroke="#000" d="M138.39745962155607,156.69872981077796L113.39745962155607,113.397459621556" stroke-width="1"></path><path transform="matrix(1,0,0,1,0,0)" fill="none" stroke="#000" d="M231.69872981077805,181.69872981077802L188.3974596215561,156.698729810778" stroke-width="1"></path><path transform="matrix(1,0,0,1,0,0)" fill="none" stroke="#000" d="M188.3974596215561,156.698729810778L138.39745962155607,156.69872981077796" stroke-width="1"></path><path transform="matrix(1,0,0,1,0,0)" fill="none" stroke="#000" d="M138.39745962155607,156.69872981077796L95.09618943233409,181.69872981077793" stroke-width="1"></path><path transform="matrix(1,0,0,1,0,0)" fill="none" stroke="#000" d="M138.39745962155607,156.69872981077796L88.39745962155604,156.69872981077793" stroke-width="1"></path><path transform="matrix(1,0,0,1,0,0)" fill="none" stroke="#000" d="M138.39745962155607,156.69872981077796L95.09618943233411,131.69872981077793" stroke-width="1"></path><path transform="matrix(1,0,0,1,0,0)" fill="none" stroke="#000" d="M188.3974596215561,156.698729810778L145.09618943233414,131.69872981077796" stroke-width="1"></path><path transform="matrix(1,0,0,1,0,0)" fill="none" stroke="#000" d="M145.09618943233414,131.69872981077796L95.09618943233411,131.69872981077793" stroke-width="1"></path><path transform="matrix(1,0,0,1,0,0)" fill="none" stroke="#000" d="M145.09618943233414,131.69872981077796L101.79491924311219,106.69872981077793" stroke-width="1"></path><path transform="matrix(1,0,0,1,0,0)" fill="none" stroke="#000" d="M145.09618943233414,131.69872981077796L120.09618943233414,88.397459621556" stroke-width="1"></path><path transform="matrix(1,0,0,1,0,0)" fill="none" stroke="#000" d="M188.3974596215561,156.698729810778L163.3974596215561,113.39745962155602" stroke-width="1"></path><path transform="matrix(1,0,0,1,0,0)" fill="none" stroke="#000" d="M163.3974596215561,113.39745962155602L120.09618943233414,88.39745962155598" stroke-width="1"></path><path transform="matrix(1,0,0,1,0,0)" fill="none" stroke="#000" d="M163.3974596215561,113.39745962155602L138.3974596215561,70.09618943233406" stroke-width="1"></path><path transform="matrix(1,0,0,1,0,0)" fill="none" stroke="#000" d="M163.3974596215561,113.39745962155602L163.3974596215561,63.39745962155599" stroke-width="1"></path><path transform="matrix(1,0,0,1,0,0)" fill="none" stroke="#000" d="M231.69872981077805,181.69872981077802L206.69872981077805,138.39745962155604" stroke-width="1"></path><path transform="matrix(1,0,0,1,0,0)" fill="none" stroke="#000" d="M206.69872981077805,138.39745962155604L163.3974596215561,113.397459621556" stroke-width="1"></path><path transform="matrix(1,0,0,1,0,0)" fill="none" stroke="#000" d="M163.3974596215561,113.397459621556L113.39745962155605,113.39745962155597" stroke-width="1"></path><path transform="matrix(1,0,0,1,0,0)" fill="none" stroke="#000" d="M163.3974596215561,113.397459621556L120.09618943233414,88.39745962155595" stroke-width="1"></path><path transform="matrix(1,0,0,1,0,0)" fill="none" stroke="#000" d="M163.3974596215561,113.397459621556L138.3974596215561,70.09618943233401" stroke-width="1"></path><path transform="matrix(1,0,0,1,0,0)" fill="none" stroke="#000" d="M206.69872981077805,138.39745962155604L181.69872981077805,95.09618943233406" stroke-width="1"></path><path transform="matrix(1,0,0,1,0,0)" fill="none" stroke="#000" d="M181.69872981077805,95.09618943233406L138.3974596215561,70.09618943233401" stroke-width="1"></path><path transform="matrix(1,0,0,1,0,0)" fill="none" stroke="#000" d="M181.69872981077805,95.09618943233406L156.69872981077805,51.794919243112076" stroke-width="1"></path><path transform="matrix(1,0,0,1,0,0)" fill="none" stroke="#000" d="M181.69872981077805,95.09618943233406L181.69872981077808,45.096189432334015" stroke-width="1"></path><path transform="matrix(1,0,0,1,0,0)" fill="none" stroke="#000" d="M206.69872981077805,138.39745962155604L206.69872981077808,88.397459621556" stroke-width="1"></path><path transform="matrix(1,0,0,1,0,0)" fill="none" stroke="#000" d="M206.69872981077808,88.397459621556L181.69872981077808,45.09618943233401" stroke-width="1"></path><path transform="matrix(1,0,0,1,0,0)" fill="none" stroke="#000" d="M206.69872981077808,88.397459621556L206.6987298107781,38.39745962155595" stroke-width="1"></path><path transform="matrix(1,0,0,1,0,0)" fill="none" stroke="#000" d="M206.69872981077808,88.397459621556L231.6987298107781,45.096189432334036" stroke-width="1"></path><path transform="matrix(1,0,0,1,0,0)" fill="none" stroke="#000" d="M275,206.69872981077805L250,163.3974596215561" stroke-width="1"></path><path transform="matrix(1,0,0,1,0,0)" fill="none" stroke="#000" d="M250,163.3974596215561L206.69872981077805,138.39745962155607" stroke-width="1"></path><path transform="matrix(1,0,0,1,0,0)" fill="none" stroke="#000" d="M206.69872981077805,138.39745962155607L156.69872981077802,138.39745962155604" stroke-width="1"></path><path transform="matrix(1,0,0,1,0,0)" fill="none" stroke="#000" d="M156.69872981077802,138.39745962155604L113.39745962155604,163.39745962155604" stroke-width="1"></path><path transform="matrix(1,0,0,1,0,0)" fill="none" stroke="#000" d="M156.69872981077802,138.39745962155604L106.69872981077799,138.397459621556" stroke-width="1"></path><path transform="matrix(1,0,0,1,0,0)" fill="none" stroke="#000" d="M156.69872981077802,138.39745962155604L113.39745962155607,113.39745962155601" stroke-width="1"></path><path transform="matrix(1,0,0,1,0,0)" fill="none" stroke="#000" d="M206.69872981077805,138.39745962155607L163.3974596215561,113.39745962155604" stroke-width="1"></path><path transform="matrix(1,0,0,1,0,0)" fill="none" stroke="#000" d="M163.3974596215561,113.39745962155604L113.39745962155607,113.39745962155601" stroke-width="1"></path><path transform="matrix(1,0,0,1,0,0)" fill="none" stroke="#000" d="M163.3974596215561,113.39745962155604L120.09618943233414,88.39745962155601" stroke-width="1"></path><path transform="matrix(1,0,0,1,0,0)" fill="none" stroke="#000" d="M163.3974596215561,113.39745962155604L138.3974596215561,70.09618943233407" stroke-width="1"></path><path transform="matrix(1,0,0,1,0,0)" fill="none" stroke="#000" d="M206.69872981077805,138.39745962155607L181.69872981077805,95.0961894323341" stroke-width="1"></path><path transform="matrix(1,0,0,1,0,0)" fill="none" stroke="#000" d="M181.69872981077805,95.0961894323341L138.3974596215561,70.09618943233406" stroke-width="1"></path><path transform="matrix(1,0,0,1,0,0)" fill="none" stroke="#000" d="M181.69872981077805,95.0961894323341L156.69872981077805,51.79491924311213" stroke-width="1"></path><path transform="matrix(1,0,0,1,0,0)" fill="none" stroke="#000" d="M181.69872981077805,95.0961894323341L181.69872981077805,45.096189432334064" stroke-width="1"></path><path transform="matrix(1,0,0,1,0,0)" fill="none" stroke="#000" d="M250,163.3974596215561L225,120.09618943233414" stroke-width="1"></path><path transform="matrix(1,0,0,1,0,0)" fill="none" stroke="#000" d="M225,120.09618943233414L181.69872981077805,95.09618943233411" stroke-width="1"></path><path transform="matrix(1,0,0,1,0,0)" fill="none" stroke="#000" d="M181.69872981077805,95.09618943233411L131.69872981077802,95.09618943233409" stroke-width="1"></path><path transform="matrix(1,0,0,1,0,0)" fill="none" stroke="#000" d="M181.69872981077805,95.09618943233411L138.3974596215561,70.09618943233409" stroke-width="1"></path><path transform="matrix(1,0,0,1,0,0)" fill="none" stroke="#000" d="M181.69872981077805,95.09618943233411L156.69872981077805,51.79491924311215" stroke-width="1"></path><path transform="matrix(1,0,0,1,0,0)" fill="none" stroke="#000" d="M225,120.09618943233414L200,76.79491924311219" stroke-width="1"></path><path transform="matrix(1,0,0,1,0,0)" fill="none" stroke="#000" d="M200,76.79491924311219L156.69872981077805,51.79491924311217" stroke-width="1"></path><path transform="matrix(1,0,0,1,0,0)" fill="none" stroke="#000" d="M200,76.79491924311219L175,33.49364905389024" stroke-width="1"></path><path transform="matrix(1,0,0,1,0,0)" fill="none" stroke="#000" d="M200,76.79491924311219L200,26.79491924311217" stroke-width="1"></path><path transform="matrix(1,0,0,1,0,0)" fill="none" stroke="#000" d="M225,120.09618943233414L225,70.09618943233411" stroke-width="1"></path><path transform="matrix(1,0,0,1,0,0)" fill="none" stroke="#000" d="M225,70.09618943233411L200,26.794919243112155" stroke-width="1"></path><path transform="matrix(1,0,0,1,0,0)" fill="none" stroke="#000" d="M225,70.09618943233411L225,20.096189432334086" stroke-width="1"></path><path transform="matrix(1,0,0,1,0,0)" fill="none" stroke="#000" d="M225,70.09618943233411L250,26.794919243112155" stroke-width="1"></path><path transform="matrix(1,0,0,1,0,0)" fill="none" stroke="#000" d="M250,163.3974596215561L250,113.39745962155607" stroke-width="1"></path><path transform="matrix(1,0,0,1,0,0)" fill="none" stroke="#000" d="M250,113.39745962155607L225,70.09618943233411" stroke-width="1"></path><path transform="matrix(1,0,0,1,0,0)" fill="none" stroke="#000" d="M225,70.09618943233411L181.69872981077805,45.09618943233409" stroke-width="1"></path><path transform="matrix(1,0,0,1,0,0)" fill="none" stroke="#000" d="M225,70.09618943233411L200,26.79491924311216" stroke-width="1"></path><path transform="matrix(1,0,0,1,0,0)" fill="none" stroke="#000" d="M225,70.09618943233411L225,20.096189432334093" stroke-width="1"></path><path transform="matrix(1,0,0,1,0,0)" fill="none" stroke="#000" d="M250,113.39745962155607L250,63.39745962155604" stroke-width="1"></path><path transform="matrix(1,0,0,1,0,0)" fill="none" stroke="#000" d="M250,63.39745962155604L225,20.09618943233408" stroke-width="1"></path><path transform="matrix(1,0,0,1,0,0)" fill="none" stroke="#000" d="M250,63.39745962155604L250,13.39745962155601" stroke-width="1"></path><path transform="matrix(1,0,0,1,0,0)" fill="none" stroke="#000" d="M250,63.39745962155604L275,20.09618943233408" stroke-width="1"></path><path transform="matrix(1,0,0,1,0,0)" fill="none" stroke="#000" d="M250,113.39745962155607L275,70.09618943233411" stroke-width="1"></path><path transform="matrix(1,0,0,1,0,0)" fill="none" stroke="#000" d="M275,70.09618943233411L275,20.096189432334093" stroke-width="1"></path><path transform="matrix(1,0,0,1,0,0)" fill="none" stroke="#000" d="M275,70.09618943233411L300,26.79491924311216" stroke-width="1"></path><path transform="matrix(1,0,0,1,0,0)" fill="none" stroke="#000" d="M275,70.09618943233411L318.30127018922195,45.09618943233409" stroke-width="1"></path><path transform="matrix(1,0,0,1,0,0)" fill="none" stroke="#000" d="M275,206.69872981077805L275,156.69872981077802" stroke-width="1"></path><path transform="matrix(1,0,0,1,0,0)" fill="none" stroke="#000" d="M275,156.69872981077802L250,113.39745962155607" stroke-width="1"></path><path transform="matrix(1,0,0,1,0,0)" fill="none" stroke="#000" d="M250,113.39745962155607L206.69872981077805,88.39745962155604" stroke-width="1"></path><path transform="matrix(1,0,0,1,0,0)" fill="none" stroke="#000" d="M206.69872981077805,88.39745962155604L156.69872981077802,88.39745962155601" stroke-width="1"></path><path transform="matrix(1,0,0,1,0,0)" fill="none" stroke="#000" d="M206.69872981077805,88.39745962155604L163.3974596215561,63.39745962155601" stroke-width="1"></path><path transform="matrix(1,0,0,1,0,0)" fill="none" stroke="#000" d="M206.69872981077805,88.39745962155604L181.69872981077805,45.09618943233407" stroke-width="1"></path><path transform="matrix(1,0,0,1,0,0)" fill="none" stroke="#000" d="M250,113.39745962155607L225,70.09618943233411" stroke-width="1"></path><path transform="matrix(1,0,0,1,0,0)" fill="none" stroke="#000" d="M225,70.09618943233411L181.69872981077805,45.09618943233409" stroke-width="1"></path><path transform="matrix(1,0,0,1,0,0)" fill="none" stroke="#000" d="M225,70.09618943233411L200,26.79491924311216" stroke-width="1"></path><path transform="matrix(1,0,0,1,0,0)" fill="none" stroke="#000" d="M225,70.09618943233411L225,20.096189432334093" stroke-width="1"></path><path transform="matrix(1,0,0,1,0,0)" fill="none" stroke="#000" d="M250,113.39745962155607L250,63.397459621556045" stroke-width="1"></path><path transform="matrix(1,0,0,1,0,0)" fill="none" stroke="#000" d="M250,63.397459621556045L225,20.096189432334093" stroke-width="1"></path><path transform="matrix(1,0,0,1,0,0)" fill="none" stroke="#000" d="M250,63.397459621556045L250,13.397459621556024" stroke-width="1"></path><path transform="matrix(1,0,0,1,0,0)" fill="none" stroke="#000" d="M250,63.397459621556045L275,20.096189432334093" stroke-width="1"></path><path transform="matrix(1,0,0,1,0,0)" fill="none" stroke="#000" d="M275,156.69872981077802L275,106.69872981077799" stroke-width="1"></path><path transform="matrix(1,0,0,1,0,0)" fill="none" stroke="#000" d="M275,106.69872981077799L250,63.39745962155603" stroke-width="1"></path><path transform="matrix(1,0,0,1,0,0)" fill="none" stroke="#000" d="M250,63.39745962155603L206.69872981077805,38.397459621556" stroke-width="1"></path><path transform="matrix(1,0,0,1,0,0)" fill="none" stroke="#000" d="M250,63.39745962155603L225,20.09618943233407" stroke-width="1"></path><path transform="matrix(1,0,0,1,0,0)" fill="none" stroke="#000" d="M250,63.39745962155603L250,13.397459621556003" stroke-width="1"></path><path transform="matrix(1,0,0,1,0,0)" fill="none" stroke="#000" d="M275,106.69872981077799L275,56.69872981077796" stroke-width="1"></path><path transform="matrix(1,0,0,1,0,0)" fill="none" stroke="#000" d="M275,56.69872981077796L250,13.397459621556003" stroke-width="1"></path><path transform="matrix(1,0,0,1,0,0)" fill="none" stroke="#000" d="M275,56.69872981077796L275,6.698729810777934" stroke-width="1"></path><path transform="matrix(1,0,0,1,0,0)" fill="none" stroke="#000" d="M275,56.69872981077796L300,13.397459621556003" stroke-width="1"></path><path transform="matrix(1,0,0,1,0,0)" fill="none" stroke="#000" d="M275,106.69872981077799L300,63.39745962155603" stroke-width="1"></path><path transform="matrix(1,0,0,1,0,0)" fill="none" stroke="#000" d="M300,63.39745962155603L300,13.397459621556003" stroke-width="1"></path><path transform="matrix(1,0,0,1,0,0)" fill="none" stroke="#000" d="M300,63.39745962155603L325,20.09618943233407" stroke-width="1"></path><path transform="matrix(1,0,0,1,0,0)" fill="none" stroke="#000" d="M300,63.39745962155603L343.30127018922195,38.397459621556" stroke-width="1"></path><path transform="matrix(1,0,0,1,0,0)" fill="none" stroke="#000" d="M275,156.69872981077802L300,113.39745962155607" stroke-width="1"></path><path transform="matrix(1,0,0,1,0,0)" fill="none" stroke="#000" d="M300,113.39745962155607L300,63.397459621556045" stroke-width="1"></path><path transform="matrix(1,0,0,1,0,0)" fill="none" stroke="#000" d="M300,63.397459621556045L275,20.096189432334093" stroke-width="1"></path><path transform="matrix(1,0,0,1,0,0)" fill="none" stroke="#000" d="M300,63.397459621556045L300,13.397459621556024" stroke-width="1"></path><path transform="matrix(1,0,0,1,0,0)" fill="none" stroke="#000" d="M300,63.397459621556045L325,20.096189432334093" stroke-width="1"></path><path transform="matrix(1,0,0,1,0,0)" fill="none" stroke="#000" d="M300,113.39745962155607L325,70.09618943233411" stroke-width="1"></path><path transform="matrix(1,0,0,1,0,0)" fill="none" stroke="#000" d="M325,70.09618943233411L325,20.096189432334093" stroke-width="1"></path><path transform="matrix(1,0,0,1,0,0)" fill="none" stroke="#000" d="M325,70.09618943233411L350,26.79491924311216" stroke-width="1"></path><path transform="matrix(1,0,0,1,0,0)" fill="none" stroke="#000" d="M325,70.09618943233411L368.30127018922195,45.09618943233409" stroke-width="1"></path><path transform="matrix(1,0,0,1,0,0)" fill="none" stroke="#000" d="M300,113.39745962155607L343.30127018922195,88.39745962155604" stroke-width="1"></path><path transform="matrix(1,0,0,1,0,0)" fill="none" stroke="#000" d="M343.30127018922195,88.39745962155604L368.30127018922195,45.09618943233407" stroke-width="1"></path><path transform="matrix(1,0,0,1,0,0)" fill="none" stroke="#000" d="M343.30127018922195,88.39745962155604L386.6025403784439,63.39745962155601" stroke-width="1"></path><path transform="matrix(1,0,0,1,0,0)" fill="none" stroke="#000" d="M343.30127018922195,88.39745962155604L393.301270189222,88.39745962155601" stroke-width="1"></path><path transform="matrix(1,0,0,1,0,0)" fill="none" stroke="#000" d="M300,250L300,200" stroke-width="1"></path><path transform="matrix(1,0,0,1,0,0)" fill="none" stroke="#000" d="M300,200L275,156.69872981077805" stroke-width="1"></path><path transform="matrix(1,0,0,1,0,0)" fill="none" stroke="#000" d="M275,156.69872981077805L231.69872981077805,131.69872981077802" stroke-width="1"></path><path transform="matrix(1,0,0,1,0,0)" fill="none" stroke="#000" d="M231.69872981077805,131.69872981077802L181.69872981077802,131.698729810778" stroke-width="1"></path><path transform="matrix(1,0,0,1,0,0)" fill="none" stroke="#000" d="M181.69872981077802,131.698729810778L138.39745962155604,156.698729810778" stroke-width="1"></path><path transform="matrix(1,0,0,1,0,0)" fill="none" stroke="#000" d="M181.69872981077802,131.698729810778L131.698729810778,131.69872981077796" stroke-width="1"></path><path transform="matrix(1,0,0,1,0,0)" fill="none" stroke="#000" d="M181.69872981077802,131.698729810778L138.39745962155607,106.69872981077796" stroke-width="1"></path><path transform="matrix(1,0,0,1,0,0)" fill="none" stroke="#000" d="M231.69872981077805,131.69872981077802L188.3974596215561,106.69872981077799" stroke-width="1"></path><path transform="matrix(1,0,0,1,0,0)" fill="none" stroke="#000" d="M188.3974596215561,106.69872981077799L138.39745962155607,106.69872981077796" stroke-width="1"></path><path transform="matrix(1,0,0,1,0,0)" fill="none" stroke="#000" d="M188.3974596215561,106.69872981077799L145.09618943233414,81.69872981077796" stroke-width="1"></path><path transform="matrix(1,0,0,1,0,0)" fill="none" stroke="#000" d="M188.3974596215561,106.69872981077799L163.3974596215561,63.397459621556024" stroke-width="1"></path><path transform="matrix(1,0,0,1,0,0)" fill="none" stroke="#000" d="M231.69872981077805,131.69872981077802L206.69872981077805,88.39745962155605" stroke-width="1"></path><path transform="matrix(1,0,0,1,0,0)" fill="none" stroke="#000" d="M206.69872981077805,88.39745962155605L163.3974596215561,63.39745962155602" stroke-width="1"></path><path transform="matrix(1,0,0,1,0,0)" fill="none" stroke="#000" d="M206.69872981077805,88.39745962155605L181.69872981077805,45.096189432334086" stroke-width="1"></path><path transform="matrix(1,0,0,1,0,0)" fill="none" stroke="#000" d="M206.69872981077805,88.39745962155605L206.69872981077805,38.39745962155602" stroke-width="1"></path><path transform="matrix(1,0,0,1,0,0)" fill="none" stroke="#000" d="M275,156.69872981077805L250,113.3974596215561" stroke-width="1"></path><path transform="matrix(1,0,0,1,0,0)" fill="none" stroke="#000" d="M250,113.3974596215561L206.69872981077805,88.39745962155607" stroke-width="1"></path><path transform="matrix(1,0,0,1,0,0)" fill="none" stroke="#000" d="M206.69872981077805,88.39745962155607L156.69872981077802,88.39745962155604" stroke-width="1"></path><path transform="matrix(1,0,0,1,0,0)" fill="none" stroke="#000" d="M206.69872981077805,88.39745962155607L163.3974596215561,63.39745962155604" stroke-width="1"></path><path transform="matrix(1,0,0,1,0,0)" fill="none" stroke="#000" d="M206.69872981077805,88.39745962155607L181.69872981077805,45.0961894323341" stroke-width="1"></path><path transform="matrix(1,0,0,1,0,0)" fill="none" stroke="#000" d="M250,113.3974596215561L225,70.09618943233414" stroke-width="1"></path><path transform="matrix(1,0,0,1,0,0)" fill="none" stroke="#000" d="M225,70.09618943233414L181.69872981077805,45.09618943233412" stroke-width="1"></path><path transform="matrix(1,0,0,1,0,0)" fill="none" stroke="#000" d="M225,70.09618943233414L200,26.79491924311219" stroke-width="1"></path><path transform="matrix(1,0,0,1,0,0)" fill="none" stroke="#000" d="M225,70.09618943233414L225,20.09618943233412" stroke-width="1"></path><path transform="matrix(1,0,0,1,0,0)" fill="none" stroke="#000" d="M250,113.3974596215561L250,63.397459621556074" stroke-width="1"></path><path transform="matrix(1,0,0,1,0,0)" fill="none" stroke="#000" d="M250,63.397459621556074L225,20.09618943233412" stroke-width="1"></path><path transform="matrix(1,0,0,1,0,0)" fill="none" stroke="#000" d="M250,63.397459621556074L250,13.397459621556052" stroke-width="1"></path><path transform="matrix(1,0,0,1,0,0)" fill="none" stroke="#000" d="M250,63.397459621556074L275,20.09618943233412" stroke-width="1"></path><path transform="matrix(1,0,0,1,0,0)" fill="none" stroke="#000" d="M275,156.69872981077805L275,106.69872981077802" stroke-width="1"></path><path transform="matrix(1,0,0,1,0,0)" fill="none" stroke="#000" d="M275,106.69872981077802L250,63.39745962155606" stroke-width="1"></path><path transform="matrix(1,0,0,1,0,0)" fill="none" stroke="#000" d="M250,63.39745962155606L206.69872981077805,38.39745962155603" stroke-width="1"></path><path transform="matrix(1,0,0,1,0,0)" fill="none" stroke="#000" d="M250,63.39745962155606L225,20.0961894323341" stroke-width="1"></path><path transform="matrix(1,0,0,1,0,0)" fill="none" stroke="#000" d="M250,63.39745962155606L250,13.397459621556031" stroke-width="1"></path><path transform="matrix(1,0,0,1,0,0)" fill="none" stroke="#000" d="M275,106.69872981077802L275,56.69872981077799" stroke-width="1"></path><path transform="matrix(1,0,0,1,0,0)" fill="none" stroke="#000" d="M275,56.69872981077799L250,13.397459621556031" stroke-width="1"></path><path transform="matrix(1,0,0,1,0,0)" fill="none" stroke="#000" d="M275,56.69872981077799L275,6.698729810777962" stroke-width="1"></path><path transform="matrix(1,0,0,1,0,0)" fill="none" stroke="#000" d="M275,56.69872981077799L300,13.397459621556031" stroke-width="1"></path><path transform="matrix(1,0,0,1,0,0)" fill="none" stroke="#000" d="M275,106.69872981077802L300,63.39745962155606" stroke-width="1"></path><path transform="matrix(1,0,0,1,0,0)" fill="none" stroke="#000" d="M300,63.39745962155606L300,13.397459621556031" stroke-width="1"></path><path transform="matrix(1,0,0,1,0,0)" fill="none" stroke="#000" d="M300,63.39745962155606L325,20.0961894323341" stroke-width="1"></path><path transform="matrix(1,0,0,1,0,0)" fill="none" stroke="#000" d="M300,63.39745962155606L343.30127018922195,38.39745962155603" stroke-width="1"></path><path transform="matrix(1,0,0,1,0,0)" fill="none" stroke="#000" d="M300,200L300,150" stroke-width="1"></path><path transform="matrix(1,0,0,1,0,0)" fill="none" stroke="#000" d="M300,150L275,106.69872981077806" stroke-width="1"></path><path transform="matrix(1,0,0,1,0,0)" fill="none" stroke="#000" d="M275,106.69872981077806L231.69872981077805,81.69872981077805" stroke-width="1"></path><path transform="matrix(1,0,0,1,0,0)" fill="none" stroke="#000" d="M231.69872981077805,81.69872981077805L181.69872981077802,81.69872981077805" stroke-width="1"></path><path transform="matrix(1,0,0,1,0,0)" fill="none" stroke="#000" d="M231.69872981077805,81.69872981077805L188.3974596215561,56.69872981077803" stroke-width="1"></path><path transform="matrix(1,0,0,1,0,0)" fill="none" stroke="#000" d="M231.69872981077805,81.69872981077805L206.69872981077805,38.397459621556095" stroke-width="1"></path><path transform="matrix(1,0,0,1,0,0)" fill="none" stroke="#000" d="M275,106.69872981077806L250,63.39745962155612" stroke-width="1"></path><path transform="matrix(1,0,0,1,0,0)" fill="none" stroke="#000" d="M250,63.39745962155612L206.69872981077805,38.397459621556116" stroke-width="1"></path><path transform="matrix(1,0,0,1,0,0)" fill="none" stroke="#000" d="M250,63.39745962155612L225,20.096189432334185" stroke-width="1"></path><path transform="matrix(1,0,0,1,0,0)" fill="none" stroke="#000" d="M250,63.39745962155612L250,13.397459621556116" stroke-width="1"></path><path transform="matrix(1,0,0,1,0,0)" fill="none" stroke="#000" d="M275,106.69872981077806L275,56.698729810778055" stroke-width="1"></path><path transform="matrix(1,0,0,1,0,0)" fill="none" stroke="#000" d="M275,56.698729810778055L250,13.397459621556116" stroke-width="1"></path><path transform="matrix(1,0,0,1,0,0)" fill="none" stroke="#000" d="M275,56.698729810778055L275,6.6987298107780475" stroke-width="1"></path><path transform="matrix(1,0,0,1,0,0)" fill="none" stroke="#000" d="M275,56.698729810778055L300,13.397459621556116" stroke-width="1"></path><path transform="matrix(1,0,0,1,0,0)" fill="none" stroke="#000" d="M300,150L300,100" stroke-width="1"></path><path transform="matrix(1,0,0,1,0,0)" fill="none" stroke="#000" d="M300,100L275,56.69872981077806" stroke-width="1"></path><path transform="matrix(1,0,0,1,0,0)" fill="none" stroke="#000" d="M275,56.69872981077806L231.69872981077805,31.698729810778055" stroke-width="1"></path><path transform="matrix(1,0,0,1,0,0)" fill="none" stroke="#000" d="M275,56.69872981077806L250,13.397459621556123" stroke-width="1"></path><path transform="matrix(1,0,0,1,0,0)" fill="none" stroke="#000" d="M275,56.69872981077806L275,6.698729810778055" stroke-width="1"></path><path transform="matrix(1,0,0,1,0,0)" fill="none" stroke="#000" d="M300,100L300,50" stroke-width="1"></path><path transform="matrix(1,0,0,1,0,0)" fill="none" stroke="#000" d="M300,50L275,6.698729810778062" stroke-width="1"></path><path transform="matrix(1,0,0,1,0,0)" fill="none" stroke="#000" d="M300,50L300,0" stroke-width="1"></path><path transform="matrix(1,0,0,1,0,0)" fill="none" stroke="#000" d="M300,50L325,6.698729810778062" stroke-width="1"></path><path transform="matrix(1,0,0,1,0,0)" fill="none" stroke="#000" d="M300,100L325,56.69872981077806" stroke-width="1"></path><path transform="matrix(1,0,0,1,0,0)" fill="none" stroke="#000" d="M325,56.69872981077806L325,6.698729810778055" stroke-width="1"></path><path transform="matrix(1,0,0,1,0,0)" fill="none" stroke="#000" d="M325,56.69872981077806L350,13.397459621556123" stroke-width="1"></path><path transform="matrix(1,0,0,1,0,0)" fill="none" stroke="#000" d="M325,56.69872981077806L368.30127018922195,31.698729810778055" stroke-width="1"></path><path transform="matrix(1,0,0,1,0,0)" fill="none" stroke="#000" d="M300,150L325,106.69872981077806" stroke-width="1"></path><path transform="matrix(1,0,0,1,0,0)" fill="none" stroke="#000" d="M325,106.69872981077806L325,56.698729810778055" stroke-width="1"></path><path transform="matrix(1,0,0,1,0,0)" fill="none" stroke="#000" d="M325,56.698729810778055L300,13.397459621556116" stroke-width="1"></path><path transform="matrix(1,0,0,1,0,0)" fill="none" stroke="#000" d="M325,56.698729810778055L325,6.6987298107780475" stroke-width="1"></path><path transform="matrix(1,0,0,1,0,0)" fill="none" stroke="#000" d="M325,56.698729810778055L350,13.397459621556116" stroke-width="1"></path><path transform="matrix(1,0,0,1,0,0)" fill="none" stroke="#000" d="M325,106.69872981077806L350,63.39745962155612" stroke-width="1"></path><path transform="matrix(1,0,0,1,0,0)" fill="none" stroke="#000" d="M350,63.39745962155612L350,13.397459621556116" stroke-width="1"></path><path transform="matrix(1,0,0,1,0,0)" fill="none" stroke="#000" d="M350,63.39745962155612L375,20.096189432334185" stroke-width="1"></path><path transform="matrix(1,0,0,1,0,0)" fill="none" stroke="#000" d="M350,63.39745962155612L393.30127018922195,38.397459621556116" stroke-width="1"></path><path transform="matrix(1,0,0,1,0,0)" fill="none" stroke="#000" d="M325,106.69872981077806L368.30127018922195,81.69872981077805" stroke-width="1"></path><path transform="matrix(1,0,0,1,0,0)" fill="none" stroke="#000" d="M368.30127018922195,81.69872981077805L393.30127018922195,38.397459621556095" stroke-width="1"></path><path transform="matrix(1,0,0,1,0,0)" fill="none" stroke="#000" d="M368.30127018922195,81.69872981077805L411.6025403784439,56.69872981077803" stroke-width="1"></path><path transform="matrix(1,0,0,1,0,0)" fill="none" stroke="#000" d="M368.30127018922195,81.69872981077805L418.301270189222,81.69872981077805" stroke-width="1"></path><path transform="matrix(1,0,0,1,0,0)" fill="none" stroke="#000" d="M300,200L325,156.69872981077805" stroke-width="1"></path><path transform="matrix(1,0,0,1,0,0)" fill="none" stroke="#000" d="M325,156.69872981077805L325,106.69872981077802" stroke-width="1"></path><path transform="matrix(1,0,0,1,0,0)" fill="none" stroke="#000" d="M325,106.69872981077802L300,63.39745962155606" stroke-width="1"></path><path transform="matrix(1,0,0,1,0,0)" fill="none" stroke="#000" d="M300,63.39745962155606L256.69872981077805,38.39745962155603" stroke-width="1"></path><path transform="matrix(1,0,0,1,0,0)" fill="none" stroke="#000" d="M300,63.39745962155606L275,20.0961894323341" stroke-width="1"></path><path transform="matrix(1,0,0,1,0,0)" fill="none" stroke="#000" d="M300,63.39745962155606L300,13.397459621556031" stroke-width="1"></path><path transform="matrix(1,0,0,1,0,0)" fill="none" stroke="#000" d="M325,106.69872981077802L325,56.69872981077799" stroke-width="1"></path><path transform="matrix(1,0,0,1,0,0)" fill="none" stroke="#000" d="M325,56.69872981077799L300,13.397459621556031" stroke-width="1"></path><path transform="matrix(1,0,0,1,0,0)" fill="none" stroke="#000" d="M325,56.69872981077799L325,6.698729810777962" stroke-width="1"></path><path transform="matrix(1,0,0,1,0,0)" fill="none" stroke="#000" d="M325,56.69872981077799L350,13.397459621556031" stroke-width="1"></path><path transform="matrix(1,0,0,1,0,0)" fill="none" stroke="#000" d="M325,106.69872981077802L350,63.39745962155606" stroke-width="1"></path><path transform="matrix(1,0,0,1,0,0)" fill="none" stroke="#000" d="M350,63.39745962155606L350,13.397459621556031" stroke-width="1"></path><path transform="matrix(1,0,0,1,0,0)" fill="none" stroke="#000" d="M350,63.39745962155606L375,20.0961894323341" stroke-width="1"></path><path transform="matrix(1,0,0,1,0,0)" fill="none" stroke="#000" d="M350,63.39745962155606L393.30127018922195,38.39745962155603" stroke-width="1"></path><path transform="matrix(1,0,0,1,0,0)" fill="none" stroke="#000" d="M325,156.69872981077805L350,113.3974596215561" stroke-width="1"></path><path transform="matrix(1,0,0,1,0,0)" fill="none" stroke="#000" d="M350,113.3974596215561L350,63.397459621556074" stroke-width="1"></path><path transform="matrix(1,0,0,1,0,0)" fill="none" stroke="#000" d="M350,63.397459621556074L325,20.09618943233412" stroke-width="1"></path><path transform="matrix(1,0,0,1,0,0)" fill="none" stroke="#000" d="M350,63.397459621556074L350,13.397459621556052" stroke-width="1"></path><path transform="matrix(1,0,0,1,0,0)" fill="none" stroke="#000" d="M350,63.397459621556074L375,20.09618943233412" stroke-width="1"></path><path transform="matrix(1,0,0,1,0,0)" fill="none" stroke="#000" d="M350,113.3974596215561L375,70.09618943233414" stroke-width="1"></path><path transform="matrix(1,0,0,1,0,0)" fill="none" stroke="#000" d="M375,70.09618943233414L375,20.09618943233412" stroke-width="1"></path><path transform="matrix(1,0,0,1,0,0)" fill="none" stroke="#000" d="M375,70.09618943233414L400,26.79491924311219" stroke-width="1"></path><path transform="matrix(1,0,0,1,0,0)" fill="none" stroke="#000" d="M375,70.09618943233414L418.30127018922195,45.09618943233412" stroke-width="1"></path><path transform="matrix(1,0,0,1,0,0)" fill="none" stroke="#000" d="M350,113.3974596215561L393.30127018922195,88.39745962155607" stroke-width="1"></path><path transform="matrix(1,0,0,1,0,0)" fill="none" stroke="#000" d="M393.30127018922195,88.39745962155607L418.30127018922195,45.0961894323341" stroke-width="1"></path><path transform="matrix(1,0,0,1,0,0)" fill="none" stroke="#000" d="M393.30127018922195,88.39745962155607L436.6025403784439,63.39745962155604" stroke-width="1"></path><path transform="matrix(1,0,0,1,0,0)" fill="none" stroke="#000" d="M393.30127018922195,88.39745962155607L443.301270189222,88.39745962155604" stroke-width="1"></path><path transform="matrix(1,0,0,1,0,0)" fill="none" stroke="#000" d="M325,156.69872981077805L368.30127018922195,131.69872981077802" stroke-width="1"></path><path transform="matrix(1,0,0,1,0,0)" fill="none" stroke="#000" d="M368.30127018922195,131.69872981077802L393.30127018922195,88.39745962155605" stroke-width="1"></path><path transform="matrix(1,0,0,1,0,0)" fill="none" stroke="#000" d="M393.30127018922195,88.39745962155605L393.30127018922195,38.39745962155602" stroke-width="1"></path><path transform="matrix(1,0,0,1,0,0)" fill="none" stroke="#000" d="M393.30127018922195,88.39745962155605L418.30127018922195,45.096189432334086" stroke-width="1"></path><path transform="matrix(1,0,0,1,0,0)" fill="none" stroke="#000" d="M393.30127018922195,88.39745962155605L436.6025403784439,63.39745962155602" stroke-width="1"></path><path transform="matrix(1,0,0,1,0,0)" fill="none" stroke="#000" d="M368.30127018922195,131.69872981077802L411.6025403784439,106.69872981077799" stroke-width="1"></path><path transform="matrix(1,0,0,1,0,0)" fill="none" stroke="#000" d="M411.6025403784439,106.69872981077799L436.6025403784439,63.397459621556024" stroke-width="1"></path><path transform="matrix(1,0,0,1,0,0)" fill="none" stroke="#000" d="M411.6025403784439,106.69872981077799L454.90381056766586,81.69872981077796" stroke-width="1"></path><path transform="matrix(1,0,0,1,0,0)" fill="none" stroke="#000" d="M411.6025403784439,106.69872981077799L461.60254037844396,106.69872981077796" stroke-width="1"></path><path transform="matrix(1,0,0,1,0,0)" fill="none" stroke="#000" d="M368.30127018922195,131.69872981077802L418.301270189222,131.698729810778" stroke-width="1"></path><path transform="matrix(1,0,0,1,0,0)" fill="none" stroke="#000" d="M418.301270189222,131.698729810778L461.60254037844396,106.69872981077793" stroke-width="1"></path><path transform="matrix(1,0,0,1,0,0)" fill="none" stroke="#000" d="M418.301270189222,131.698729810778L468.30127018922207,131.69872981077796" stroke-width="1"></path><path transform="matrix(1,0,0,1,0,0)" fill="none" stroke="#000" d="M418.301270189222,131.698729810778L461.602540378444,156.698729810778" stroke-width="1"></path><path transform="matrix(1,0,0,1,0,0)" fill="none" stroke="#000" d="M300,250L325,206.69872981077805" stroke-width="1"></path><path transform="matrix(1,0,0,1,0,0)" fill="none" stroke="#000" d="M325,206.69872981077805L325,156.69872981077802" stroke-width="1"></path><path transform="matrix(1,0,0,1,0,0)" fill="none" stroke="#000" d="M325,156.69872981077802L300,113.39745962155607" stroke-width="1"></path><path transform="matrix(1,0,0,1,0,0)" fill="none" stroke="#000" d="M300,113.39745962155607L256.69872981077805,88.39745962155604" stroke-width="1"></path><path transform="matrix(1,0,0,1,0,0)" fill="none" stroke="#000" d="M256.69872981077805,88.39745962155604L206.69872981077802,88.39745962155601" stroke-width="1"></path><path transform="matrix(1,0,0,1,0,0)" fill="none" stroke="#000" d="M256.69872981077805,88.39745962155604L213.3974596215561,63.39745962155601" stroke-width="1"></path><path transform="matrix(1,0,0,1,0,0)" fill="none" stroke="#000" d="M256.69872981077805,88.39745962155604L231.69872981077805,45.09618943233407" stroke-width="1"></path><path transform="matrix(1,0,0,1,0,0)" fill="none" stroke="#000" d="M300,113.39745962155607L275,70.09618943233411" stroke-width="1"></path><path transform="matrix(1,0,0,1,0,0)" fill="none" stroke="#000" d="M275,70.09618943233411L231.69872981077805,45.09618943233409" stroke-width="1"></path><path transform="matrix(1,0,0,1,0,0)" fill="none" stroke="#000" d="M275,70.09618943233411L250,26.79491924311216" stroke-width="1"></path><path transform="matrix(1,0,0,1,0,0)" fill="none" stroke="#000" d="M275,70.09618943233411L275,20.096189432334093" stroke-width="1"></path><path transform="matrix(1,0,0,1,0,0)" fill="none" stroke="#000" d="M300,113.39745962155607L300,63.397459621556045" stroke-width="1"></path><path transform="matrix(1,0,0,1,0,0)" fill="none" stroke="#000" d="M300,63.397459621556045L275,20.096189432334093" stroke-width="1"></path><path transform="matrix(1,0,0,1,0,0)" fill="none" stroke="#000" d="M300,63.397459621556045L300,13.397459621556024" stroke-width="1"></path><path transform="matrix(1,0,0,1,0,0)" fill="none" stroke="#000" d="M300,63.397459621556045L325,20.096189432334093" stroke-width="1"></path><path transform="matrix(1,0,0,1,0,0)" fill="none" stroke="#000" d="M325,156.69872981077802L325,106.69872981077799" stroke-width="1"></path><path transform="matrix(1,0,0,1,0,0)" fill="none" stroke="#000" d="M325,106.69872981077799L300,63.39745962155603" stroke-width="1"></path><path transform="matrix(1,0,0,1,0,0)" fill="none" stroke="#000" d="M300,63.39745962155603L256.69872981077805,38.397459621556" stroke-width="1"></path><path transform="matrix(1,0,0,1,0,0)" fill="none" stroke="#000" d="M300,63.39745962155603L275,20.09618943233407" stroke-width="1"></path><path transform="matrix(1,0,0,1,0,0)" fill="none" stroke="#000" d="M300,63.39745962155603L300,13.397459621556003" stroke-width="1"></path><path transform="matrix(1,0,0,1,0,0)" fill="none" stroke="#000" d="M325,106.69872981077799L325,56.69872981077796" stroke-width="1"></path><path transform="matrix(1,0,0,1,0,0)" fill="none" stroke="#000" d="M325,56.69872981077796L300,13.397459621556003" stroke-width="1"></path><path transform="matrix(1,0,0,1,0,0)" fill="none" stroke="#000" d="M325,56.69872981077796L325,6.698729810777934" stroke-width="1"></path><path transform="matrix(1,0,0,1,0,0)" fill="none" stroke="#000" d="M325,56.69872981077796L350,13.397459621556003" stroke-width="1"></path><path transform="matrix(1,0,0,1,0,0)" fill="none" stroke="#000" d="M325,106.69872981077799L350,63.39745962155603" stroke-width="1"></path><path transform="matrix(1,0,0,1,0,0)" fill="none" stroke="#000" d="M350,63.39745962155603L350,13.397459621556003" stroke-width="1"></path><path transform="matrix(1,0,0,1,0,0)" fill="none" stroke="#000" d="M350,63.39745962155603L375,20.09618943233407" stroke-width="1"></path><path transform="matrix(1,0,0,1,0,0)" fill="none" stroke="#000" d="M350,63.39745962155603L393.30127018922195,38.397459621556" stroke-width="1"></path><path transform="matrix(1,0,0,1,0,0)" fill="none" stroke="#000" d="M325,156.69872981077802L350,113.39745962155607" stroke-width="1"></path><path transform="matrix(1,0,0,1,0,0)" fill="none" stroke="#000" d="M350,113.39745962155607L350,63.397459621556045" stroke-width="1"></path><path transform="matrix(1,0,0,1,0,0)" fill="none" stroke="#000" d="M350,63.397459621556045L325,20.096189432334093" stroke-width="1"></path><path transform="matrix(1,0,0,1,0,0)" fill="none" stroke="#000" d="M350,63.397459621556045L350,13.397459621556024" stroke-width="1"></path><path transform="matrix(1,0,0,1,0,0)" fill="none" stroke="#000" d="M350,63.397459621556045L375,20.096189432334093" stroke-width="1"></path><path transform="matrix(1,0,0,1,0,0)" fill="none" stroke="#000" d="M350,113.39745962155607L375,70.09618943233411" stroke-width="1"></path><path transform="matrix(1,0,0,1,0,0)" fill="none" stroke="#000" d="M375,70.09618943233411L375,20.096189432334093" stroke-width="1"></path><path transform="matrix(1,0,0,1,0,0)" fill="none" stroke="#000" d="M375,70.09618943233411L400,26.79491924311216" stroke-width="1"></path><path transform="matrix(1,0,0,1,0,0)" fill="none" stroke="#000" d="M375,70.09618943233411L418.30127018922195,45.09618943233409" stroke-width="1"></path><path transform="matrix(1,0,0,1,0,0)" fill="none" stroke="#000" d="M350,113.39745962155607L393.30127018922195,88.39745962155604" stroke-width="1"></path><path transform="matrix(1,0,0,1,0,0)" fill="none" stroke="#000" d="M393.30127018922195,88.39745962155604L418.30127018922195,45.09618943233407" stroke-width="1"></path><path transform="matrix(1,0,0,1,0,0)" fill="none" stroke="#000" d="M393.30127018922195,88.39745962155604L436.6025403784439,63.39745962155601" stroke-width="1"></path><path transform="matrix(1,0,0,1,0,0)" fill="none" stroke="#000" d="M393.30127018922195,88.39745962155604L443.301270189222,88.39745962155601" stroke-width="1"></path><path transform="matrix(1,0,0,1,0,0)" fill="none" stroke="#000" d="M325,206.69872981077805L350,163.3974596215561" stroke-width="1"></path><path transform="matrix(1,0,0,1,0,0)" fill="none" stroke="#000" d="M350,163.3974596215561L350,113.39745962155607" stroke-width="1"></path><path transform="matrix(1,0,0,1,0,0)" fill="none" stroke="#000" d="M350,113.39745962155607L325,70.09618943233411" stroke-width="1"></path><path transform="matrix(1,0,0,1,0,0)" fill="none" stroke="#000" d="M325,70.09618943233411L281.69872981077805,45.09618943233409" stroke-width="1"></path><path transform="matrix(1,0,0,1,0,0)" fill="none" stroke="#000" d="M325,70.09618943233411L300,26.79491924311216" stroke-width="1"></path><path transform="matrix(1,0,0,1,0,0)" fill="none" stroke="#000" d="M325,70.09618943233411L325,20.096189432334093" stroke-width="1"></path><path transform="matrix(1,0,0,1,0,0)" fill="none" stroke="#000" d="M350,113.39745962155607L350,63.39745962155604" stroke-width="1"></path><path transform="matrix(1,0,0,1,0,0)" fill="none" stroke="#000" d="M350,63.39745962155604L325,20.09618943233408" stroke-width="1"></path><path transform="matrix(1,0,0,1,0,0)" fill="none" stroke="#000" d="M350,63.39745962155604L350,13.39745962155601" stroke-width="1"></path><path transform="matrix(1,0,0,1,0,0)" fill="none" stroke="#000" d="M350,63.39745962155604L375,20.09618943233408" stroke-width="1"></path><path transform="matrix(1,0,0,1,0,0)" fill="none" stroke="#000" d="M350,113.39745962155607L375,70.09618943233411" stroke-width="1"></path><path transform="matrix(1,0,0,1,0,0)" fill="none" stroke="#000" d="M375,70.09618943233411L375,20.096189432334093" stroke-width="1"></path><path transform="matrix(1,0,0,1,0,0)" fill="none" stroke="#000" d="M375,70.09618943233411L400,26.79491924311216" stroke-width="1"></path><path transform="matrix(1,0,0,1,0,0)" fill="none" stroke="#000" d="M375,70.09618943233411L418.30127018922195,45.09618943233409" stroke-width="1"></path><path transform="matrix(1,0,0,1,0,0)" fill="none" stroke="#000" d="M350,163.3974596215561L375,120.09618943233414" stroke-width="1"></path><path transform="matrix(1,0,0,1,0,0)" fill="none" stroke="#000" d="M375,120.09618943233414L375,70.09618943233411" stroke-width="1"></path><path transform="matrix(1,0,0,1,0,0)" fill="none" stroke="#000" d="M375,70.09618943233411L350,26.794919243112155" stroke-width="1"></path><path transform="matrix(1,0,0,1,0,0)" fill="none" stroke="#000" d="M375,70.09618943233411L375,20.096189432334086" stroke-width="1"></path><path transform="matrix(1,0,0,1,0,0)" fill="none" stroke="#000" d="M375,70.09618943233411L400,26.794919243112155" stroke-width="1"></path><path transform="matrix(1,0,0,1,0,0)" fill="none" stroke="#000" d="M375,120.09618943233414L400,76.79491924311219" stroke-width="1"></path><path transform="matrix(1,0,0,1,0,0)" fill="none" stroke="#000" d="M400,76.79491924311219L400,26.79491924311217" stroke-width="1"></path><path transform="matrix(1,0,0,1,0,0)" fill="none" stroke="#000" d="M400,76.79491924311219L425,33.49364905389024" stroke-width="1"></path><path transform="matrix(1,0,0,1,0,0)" fill="none" stroke="#000" d="M400,76.79491924311219L443.30127018922195,51.79491924311217" stroke-width="1"></path><path transform="matrix(1,0,0,1,0,0)" fill="none" stroke="#000" d="M375,120.09618943233414L418.30127018922195,95.09618943233411" stroke-width="1"></path><path transform="matrix(1,0,0,1,0,0)" fill="none" stroke="#000" d="M418.30127018922195,95.09618943233411L443.30127018922195,51.79491924311215" stroke-width="1"></path><path transform="matrix(1,0,0,1,0,0)" fill="none" stroke="#000" d="M418.30127018922195,95.09618943233411L461.6025403784439,70.09618943233409" stroke-width="1"></path><path transform="matrix(1,0,0,1,0,0)" fill="none" stroke="#000" d="M418.30127018922195,95.09618943233411L468.301270189222,95.09618943233409" stroke-width="1"></path><path transform="matrix(1,0,0,1,0,0)" fill="none" stroke="#000" d="M350,163.3974596215561L393.30127018922195,138.39745962155607" stroke-width="1"></path><path transform="matrix(1,0,0,1,0,0)" fill="none" stroke="#000" d="M393.30127018922195,138.39745962155607L418.30127018922195,95.0961894323341" stroke-width="1"></path><path transform="matrix(1,0,0,1,0,0)" fill="none" stroke="#000" d="M418.30127018922195,95.0961894323341L418.30127018922195,45.096189432334064" stroke-width="1"></path><path transform="matrix(1,0,0,1,0,0)" fill="none" stroke="#000" d="M418.30127018922195,95.0961894323341L443.30127018922195,51.79491924311213" stroke-width="1"></path><path transform="matrix(1,0,0,1,0,0)" fill="none" stroke="#000" d="M418.30127018922195,95.0961894323341L461.6025403784439,70.09618943233406" stroke-width="1"></path><path transform="matrix(1,0,0,1,0,0)" fill="none" stroke="#000" d="M393.30127018922195,138.39745962155607L436.6025403784439,113.39745962155604" stroke-width="1"></path><path transform="matrix(1,0,0,1,0,0)" fill="none" stroke="#000" d="M436.6025403784439,113.39745962155604L461.6025403784439,70.09618943233407" stroke-width="1"></path><path transform="matrix(1,0,0,1,0,0)" fill="none" stroke="#000" d="M436.6025403784439,113.39745962155604L479.90381056766586,88.39745962155601" stroke-width="1"></path><path transform="matrix(1,0,0,1,0,0)" fill="none" stroke="#000" d="M436.6025403784439,113.39745962155604L486.60254037844396,113.39745962155601" stroke-width="1"></path><path transform="matrix(1,0,0,1,0,0)" fill="none" stroke="#000" d="M393.30127018922195,138.39745962155607L443.301270189222,138.39745962155604" stroke-width="1"></path><path transform="matrix(1,0,0,1,0,0)" fill="none" stroke="#000" d="M443.301270189222,138.39745962155604L486.60254037844396,113.39745962155598" stroke-width="1"></path><path transform="matrix(1,0,0,1,0,0)" fill="none" stroke="#000" d="M443.301270189222,138.39745962155604L493.30127018922207,138.397459621556" stroke-width="1"></path><path transform="matrix(1,0,0,1,0,0)" fill="none" stroke="#000" d="M443.301270189222,138.39745962155604L486.602540378444,163.39745962155604" stroke-width="1"></path><path transform="matrix(1,0,0,1,0,0)" fill="none" stroke="#000" d="M325,206.69872981077805L368.30127018922195,181.69872981077802" stroke-width="1"></path><path transform="matrix(1,0,0,1,0,0)" fill="none" stroke="#000" d="M368.30127018922195,181.69872981077802L393.30127018922195,138.39745962155604" stroke-width="1"></path><path transform="matrix(1,0,0,1,0,0)" fill="none" stroke="#000" d="M393.30127018922195,138.39745962155604L393.30127018922195,88.397459621556" stroke-width="1"></path><path transform="matrix(1,0,0,1,0,0)" fill="none" stroke="#000" d="M393.30127018922195,88.397459621556L368.30127018922195,45.09618943233402" stroke-width="1"></path><path transform="matrix(1,0,0,1,0,0)" fill="none" stroke="#000" d="M393.30127018922195,88.397459621556L393.30127018922195,38.39745962155595" stroke-width="1"></path><path transform="matrix(1,0,0,1,0,0)" fill="none" stroke="#000" d="M393.30127018922195,88.397459621556L418.30127018922195,45.09618943233402" stroke-width="1"></path><path transform="matrix(1,0,0,1,0,0)" fill="none" stroke="#000" d="M393.30127018922195,138.39745962155604L418.30127018922195,95.09618943233406" stroke-width="1"></path><path transform="matrix(1,0,0,1,0,0)" fill="none" stroke="#000" d="M418.30127018922195,95.09618943233406L418.30127018922195,45.096189432334015" stroke-width="1"></path><path transform="matrix(1,0,0,1,0,0)" fill="none" stroke="#000" d="M418.30127018922195,95.09618943233406L443.30127018922195,51.794919243112076" stroke-width="1"></path><path transform="matrix(1,0,0,1,0,0)" fill="none" stroke="#000" d="M418.30127018922195,95.09618943233406L461.6025403784439,70.09618943233401" stroke-width="1"></path><path transform="matrix(1,0,0,1,0,0)" fill="none" stroke="#000" d="M393.30127018922195,138.39745962155604L436.6025403784439,113.397459621556" stroke-width="1"></path><path transform="matrix(1,0,0,1,0,0)" fill="none" stroke="#000" d="M436.6025403784439,113.397459621556L461.6025403784439,70.09618943233401" stroke-width="1"></path><path transform="matrix(1,0,0,1,0,0)" fill="none" stroke="#000" d="M436.6025403784439,113.397459621556L479.90381056766586,88.39745962155595" stroke-width="1"></path><path transform="matrix(1,0,0,1,0,0)" fill="none" stroke="#000" d="M436.6025403784439,113.397459621556L486.60254037844396,113.39745962155597" stroke-width="1"></path><path transform="matrix(1,0,0,1,0,0)" fill="none" stroke="#000" d="M368.30127018922195,181.69872981077802L411.6025403784439,156.698729810778" stroke-width="1"></path><path transform="matrix(1,0,0,1,0,0)" fill="none" stroke="#000" d="M411.6025403784439,156.698729810778L436.6025403784439,113.39745962155602" stroke-width="1"></path><path transform="matrix(1,0,0,1,0,0)" fill="none" stroke="#000" d="M436.6025403784439,113.39745962155602L436.6025403784439,63.39745962155599" stroke-width="1"></path><path transform="matrix(1,0,0,1,0,0)" fill="none" stroke="#000" d="M436.6025403784439,113.39745962155602L461.6025403784439,70.09618943233406" stroke-width="1"></path><path transform="matrix(1,0,0,1,0,0)" fill="none" stroke="#000" d="M436.6025403784439,113.39745962155602L479.90381056766586,88.39745962155598" stroke-width="1"></path><path transform="matrix(1,0,0,1,0,0)" fill="none" stroke="#000" d="M411.6025403784439,156.698729810778L454.90381056766586,131.69872981077796" stroke-width="1"></path><path transform="matrix(1,0,0,1,0,0)" fill="none" stroke="#000" d="M454.90381056766586,131.69872981077796L479.90381056766586,88.397459621556" stroke-width="1"></path><path transform="matrix(1,0,0,1,0,0)" fill="none" stroke="#000" d="M454.90381056766586,131.69872981077796L498.2050807568878,106.69872981077793" stroke-width="1"></path><path transform="matrix(1,0,0,1,0,0)" fill="none" stroke="#000" d="M454.90381056766586,131.69872981077796L504.9038105676659,131.69872981077793" stroke-width="1"></path><path transform="matrix(1,0,0,1,0,0)" fill="none" stroke="#000" d="M411.6025403784439,156.698729810778L461.60254037844396,156.69872981077796" stroke-width="1"></path><path transform="matrix(1,0,0,1,0,0)" fill="none" stroke="#000" d="M461.60254037844396,156.69872981077796L504.9038105676659,131.6987298107779" stroke-width="1"></path><path transform="matrix(1,0,0,1,0,0)" fill="none" stroke="#000" d="M461.60254037844396,156.69872981077796L511.602540378444,156.69872981077793" stroke-width="1"></path><path transform="matrix(1,0,0,1,0,0)" fill="none" stroke="#000" d="M461.60254037844396,156.69872981077796L504.90381056766597,181.69872981077796" stroke-width="1"></path><path transform="matrix(1,0,0,1,0,0)" fill="none" stroke="#000" d="M368.30127018922195,181.69872981077802L418.301270189222,181.698729810778" stroke-width="1"></path><path transform="matrix(1,0,0,1,0,0)" fill="none" stroke="#000" d="M418.301270189222,181.698729810778L461.60254037844396,156.69872981077793" stroke-width="1"></path><path transform="matrix(1,0,0,1,0,0)" fill="none" stroke="#000" d="M461.60254037844396,156.69872981077793L486.60254037844396,113.39745962155595" stroke-width="1"></path><path transform="matrix(1,0,0,1,0,0)" fill="none" stroke="#000" d="M461.60254037844396,156.69872981077793L504.9038105676659,131.69872981077788" stroke-width="1"></path><path transform="matrix(1,0,0,1,0,0)" fill="none" stroke="#000" d="M461.60254037844396,156.69872981077793L511.602540378444,156.69872981077788" stroke-width="1"></path><path transform="matrix(1,0,0,1,0,0)" fill="none" stroke="#000" d="M418.301270189222,181.698729810778L468.30127018922207,181.69872981077796" stroke-width="1"></path><path transform="matrix(1,0,0,1,0,0)" fill="none" stroke="#000" d="M468.30127018922207,181.69872981077796L511.602540378444,156.6987298107779" stroke-width="1"></path><path transform="matrix(1,0,0,1,0,0)" fill="none" stroke="#000" d="M468.30127018922207,181.69872981077796L518.3012701892221,181.69872981077793" stroke-width="1"></path><path transform="matrix(1,0,0,1,0,0)" fill="none" stroke="#000" d="M468.30127018922207,181.69872981077796L511.6025403784441,206.69872981077796" stroke-width="1"></path><path transform="matrix(1,0,0,1,0,0)" fill="none" stroke="#000" d="M418.301270189222,181.698729810778L461.602540378444,206.698729810778" stroke-width="1"></path><path transform="matrix(1,0,0,1,0,0)" fill="none" stroke="#000" d="M461.602540378444,206.698729810778L511.6025403784441,206.69872981077796" stroke-width="1"></path><path transform="matrix(1,0,0,1,0,0)" fill="none" stroke="#000" d="M461.602540378444,206.698729810778L504.903810567666,231.698729810778" stroke-width="1"></path><path transform="matrix(1,0,0,1,0,0)" fill="none" stroke="#000" d="M461.602540378444,206.698729810778L486.6025403784441,249.99999999999994" stroke-width="1"></path><path transform="matrix(1,0,0,1,0,0)" fill="none" stroke="#000" d="M300,350L325,393.30127018922195" stroke-width="1"></path><path transform="matrix(1,0,0,1,0,0)" fill="none" stroke="#000" d="M325,393.30127018922195L368.30127018922195,418.30127018922195" stroke-width="1"></path><path transform="matrix(1,0,0,1,0,0)" fill="none" stroke="#000" d="M368.30127018922195,418.30127018922195L418.30127018922195,418.30127018922195" stroke-width="1"></path><path transform="matrix(1,0,0,1,0,0)" fill="none" stroke="#000" d="M418.30127018922195,418.30127018922195L461.6025403784439,393.30127018922195" stroke-width="1"></path><path transform="matrix(1,0,0,1,0,0)" fill="none" stroke="#000" d="M461.6025403784439,393.30127018922195L486.6025403784439,350" stroke-width="1"></path><path transform="matrix(1,0,0,1,0,0)" fill="none" stroke="#000" d="M461.6025403784439,393.30127018922195L511.6025403784439,393.30127018922195" stroke-width="1"></path><path transform="matrix(1,0,0,1,0,0)" fill="none" stroke="#000" d="M418.30127018922195,418.30127018922195L461.6025403784439,443.30127018922195" stroke-width="1"></path><path transform="matrix(1,0,0,1,0,0)" fill="none" stroke="#000" d="M461.6025403784439,443.30127018922195L511.6025403784439,443.30127018922195" stroke-width="1"></path><path transform="matrix(1,0,0,1,0,0)" fill="none" stroke="#000" d="M461.6025403784439,443.30127018922195L486.6025403784439,486.6025403784439" stroke-width="1"></path><path transform="matrix(1,0,0,1,0,0)" fill="none" stroke="#000" d="M368.30127018922195,418.30127018922195L393.30127018922195,461.6025403784439" stroke-width="1"></path><path transform="matrix(1,0,0,1,0,0)" fill="none" stroke="#000" d="M393.30127018922195,461.6025403784439L436.6025403784439,486.6025403784439" stroke-width="1"></path><path transform="matrix(1,0,0,1,0,0)" fill="none" stroke="#000" d="M436.6025403784439,486.6025403784439L486.6025403784439,486.6025403784439" stroke-width="1"></path><path transform="matrix(1,0,0,1,0,0)" fill="none" stroke="#000" d="M436.6025403784439,486.6025403784439L461.6025403784439,529.9038105676658" stroke-width="1"></path><path transform="matrix(1,0,0,1,0,0)" fill="none" stroke="#000" d="M393.30127018922195,461.6025403784439L393.30127018922195,511.6025403784439" stroke-width="1"></path><path transform="matrix(1,0,0,1,0,0)" fill="none" stroke="#000" d="M393.30127018922195,511.6025403784439L418.30127018922195,554.9038105676658" stroke-width="1"></path><path transform="matrix(1,0,0,1,0,0)" fill="none" stroke="#000" d="M393.30127018922195,511.6025403784439L368.30127018922195,554.9038105676658" stroke-width="1"></path><path transform="matrix(1,0,0,1,0,0)" fill="none" stroke="#000" d="M325,393.30127018922195L325,443.30127018922195" stroke-width="1"></path><path transform="matrix(1,0,0,1,0,0)" fill="none" stroke="#000" d="M325,443.30127018922195L350,486.6025403784439" stroke-width="1"></path><path transform="matrix(1,0,0,1,0,0)" fill="none" stroke="#000" d="M350,486.6025403784439L393.30127018922195,511.60254037844396" stroke-width="1"></path><path transform="matrix(1,0,0,1,0,0)" fill="none" stroke="#000" d="M393.30127018922195,511.60254037844396L443.301270189222,511.602540378444" stroke-width="1"></path><path transform="matrix(1,0,0,1,0,0)" fill="none" stroke="#000" d="M393.30127018922195,511.60254037844396L418.30127018922195,554.9038105676659" stroke-width="1"></path><path transform="matrix(1,0,0,1,0,0)" fill="none" stroke="#000" d="M350,486.6025403784439L349.99999999999994,536.602540378444" stroke-width="1"></path><path transform="matrix(1,0,0,1,0,0)" fill="none" stroke="#000" d="M349.99999999999994,536.602540378444L374.99999999999994,579.903810567666" stroke-width="1"></path><path transform="matrix(1,0,0,1,0,0)" fill="none" stroke="#000" d="M349.99999999999994,536.602540378444L324.99999999999983,579.903810567666" stroke-width="1"></path><path transform="matrix(1,0,0,1,0,0)" fill="none" stroke="#000" d="M325,443.30127018922195L300,486.6025403784439" stroke-width="1"></path><path transform="matrix(1,0,0,1,0,0)" fill="none" stroke="#000" d="M300,486.6025403784439L300.00000000000006,536.602540378444" stroke-width="1"></path><path transform="matrix(1,0,0,1,0,0)" fill="none" stroke="#000" d="M300.00000000000006,536.602540378444L325.00000000000017,579.903810567666" stroke-width="1"></path><path transform="matrix(1,0,0,1,0,0)" fill="none" stroke="#000" d="M300.00000000000006,536.602540378444L275.00000000000006,579.903810567666" stroke-width="1"></path><path transform="matrix(1,0,0,1,0,0)" fill="none" stroke="#000" d="M300,486.6025403784439L256.69872981077805,511.60254037844396" stroke-width="1"></path><path transform="matrix(1,0,0,1,0,0)" fill="none" stroke="#000" d="M256.69872981077805,511.60254037844396L231.69872981077805,554.9038105676659" stroke-width="1"></path><path transform="matrix(1,0,0,1,0,0)" fill="none" stroke="#000" d="M256.69872981077805,511.60254037844396L206.698729810778,511.602540378444" stroke-width="1"></path><path transform="matrix(1,0,0,1,0,0)" fill="none" stroke="#000" d="M300,350L275,393.30127018922195" stroke-width="1"></path><path transform="matrix(1,0,0,1,0,0)" fill="none" stroke="#000" d="M275,393.30127018922195L275,443.30127018922195" stroke-width="1"></path><path transform="matrix(1,0,0,1,0,0)" fill="none" stroke="#000" d="M275,443.30127018922195L300,486.6025403784439" stroke-width="1"></path><path transform="matrix(1,0,0,1,0,0)" fill="none" stroke="#000" d="M300,486.6025403784439L343.30127018922195,511.60254037844396" stroke-width="1"></path><path transform="matrix(1,0,0,1,0,0)" fill="none" stroke="#000" d="M343.30127018922195,511.60254037844396L393.301270189222,511.602540378444" stroke-width="1"></path><path transform="matrix(1,0,0,1,0,0)" fill="none" stroke="#000" d="M343.30127018922195,511.60254037844396L368.30127018922195,554.9038105676659" stroke-width="1"></path><path transform="matrix(1,0,0,1,0,0)" fill="none" stroke="#000" d="M300,486.6025403784439L299.99999999999994,536.602540378444" stroke-width="1"></path><path transform="matrix(1,0,0,1,0,0)" fill="none" stroke="#000" d="M299.99999999999994,536.602540378444L324.99999999999994,579.903810567666" stroke-width="1"></path><path transform="matrix(1,0,0,1,0,0)" fill="none" stroke="#000" d="M299.99999999999994,536.602540378444L274.99999999999983,579.903810567666" stroke-width="1"></path><path transform="matrix(1,0,0,1,0,0)" fill="none" stroke="#000" d="M275,443.30127018922195L250,486.6025403784439" stroke-width="1"></path><path transform="matrix(1,0,0,1,0,0)" fill="none" stroke="#000" d="M250,486.6025403784439L250.00000000000003,536.602540378444" stroke-width="1"></path><path transform="matrix(1,0,0,1,0,0)" fill="none" stroke="#000" d="M250.00000000000003,536.602540378444L275.0000000000001,579.903810567666" stroke-width="1"></path><path transform="matrix(1,0,0,1,0,0)" fill="none" stroke="#000" d="M250.00000000000003,536.602540378444L225,579.903810567666" stroke-width="1"></path><path transform="matrix(1,0,0,1,0,0)" fill="none" stroke="#000" d="M250,486.6025403784439L206.69872981077805,511.60254037844396" stroke-width="1"></path><path transform="matrix(1,0,0,1,0,0)" fill="none" stroke="#000" d="M206.69872981077805,511.60254037844396L181.69872981077805,554.9038105676659" stroke-width="1"></path><path transform="matrix(1,0,0,1,0,0)" fill="none" stroke="#000" d="M206.69872981077805,511.60254037844396L156.698729810778,511.602540378444" stroke-width="1"></path><path transform="matrix(1,0,0,1,0,0)" fill="none" stroke="#000" d="M275,393.30127018922195L231.69872981077805,418.30127018922195" stroke-width="1"></path><path transform="matrix(1,0,0,1,0,0)" fill="none" stroke="#000" d="M231.69872981077805,418.30127018922195L206.69872981077802,461.6025403784439" stroke-width="1"></path><path transform="matrix(1,0,0,1,0,0)" fill="none" stroke="#000" d="M206.69872981077802,461.6025403784439L206.698729810778,511.60254037844396" stroke-width="1"></path><path transform="matrix(1,0,0,1,0,0)" fill="none" stroke="#000" d="M206.698729810778,511.60254037844396L231.698729810778,554.9038105676659" stroke-width="1"></path><path transform="matrix(1,0,0,1,0,0)" fill="none" stroke="#000" d="M206.698729810778,511.60254037844396L181.69872981077793,554.9038105676659" stroke-width="1"></path><path transform="matrix(1,0,0,1,0,0)" fill="none" stroke="#000" d="M206.69872981077802,461.6025403784439L163.39745962155604,486.6025403784439" stroke-width="1"></path><path transform="matrix(1,0,0,1,0,0)" fill="none" stroke="#000" d="M163.39745962155604,486.6025403784439L138.39745962155598,529.9038105676659" stroke-width="1"></path><path transform="matrix(1,0,0,1,0,0)" fill="none" stroke="#000" d="M163.39745962155604,486.6025403784439L113.397459621556,486.6025403784439" stroke-width="1"></path><path transform="matrix(1,0,0,1,0,0)" fill="none" stroke="#000" d="M231.69872981077805,418.30127018922195L181.69872981077802,418.30127018922195" stroke-width="1"></path><path transform="matrix(1,0,0,1,0,0)" fill="none" stroke="#000" d="M181.69872981077802,418.30127018922195L138.39745962155607,443.30127018922195" stroke-width="1"></path><path transform="matrix(1,0,0,1,0,0)" fill="none" stroke="#000" d="M138.39745962155607,443.30127018922195L113.39745962155604,486.6025403784439" stroke-width="1"></path><path transform="matrix(1,0,0,1,0,0)" fill="none" stroke="#000" d="M138.39745962155607,443.30127018922195L88.39745962155604,443.30127018922195" stroke-width="1"></path><path transform="matrix(1,0,0,1,0,0)" fill="none" stroke="#000" d="M181.69872981077802,418.30127018922195L138.39745962155607,393.30127018922195" stroke-width="1"></path><path transform="matrix(1,0,0,1,0,0)" fill="none" stroke="#000" d="M138.39745962155607,393.30127018922195L88.39745962155604,393.30127018922195" stroke-width="1"></path><path transform="matrix(1,0,0,1,0,0)" fill="none" stroke="#000" d="M138.39745962155607,393.30127018922195L113.39745962155604,350" stroke-width="1"></path></svg>
